<?xml version="1.0" encoding="UTF-8"?>
<svg xmlns="http://www.w3.org/2000/svg" width="200" height="83" viewBox="0 0 200 83" fill="none">
  <!-- letters "driv" — recoloured to white so the wordmark reads on the dark Topbar -->
  <path d="M9.28914 41.8037C9.28914 46.8758 13.3664 50.9453 18.4483 50.9453C23.5301 50.9453 27.6724 46.8758 27.6724 41.8037C27.6724 36.7316 23.5301 32.5971 18.4483 32.5971C13.3664 32.5971 9.28914 36.7316 9.28914 41.8037ZM16.5751 24.2577C21.456 24.2577 25.9351 26.5932 27.4065 29.8606V12.58H36.6956V58.4827H27.4065V54.0771C25.6692 57.1439 21.1251 59.3438 16.5751 59.3438C7.21504 59.3438 0 51.7356 0 41.7978C0 31.86 7.22095 24.2518 16.5751 24.2518" fill="#FFFFFF"/>
  <path d="M64.0371 25.054V33.6588C62.9026 33.529 61.7621 33.4584 60.5626 33.4584C55.6816 33.4584 52.2721 37.3272 52.2721 42.8004V58.4769H42.9829V25.1188H52.2721V30.1909H52.3371C53.4066 26.723 56.5503 24.5231 60.5567 24.5231C61.963 24.5231 63.2276 24.7237 64.0312 25.054" fill="#FFFFFF"/>
  <path d="M77.3386 58.4828H68.0494V25.1247H77.3386V58.4828ZM68.0435 11.778H77.3327V20.9196H68.0435V11.778Z" fill="#FFFFFF"/>
  <path d="M80.6772 25.1246H90.1023L96.3896 47.8726H96.5196L102.807 25.1246H112.232L101.867 58.4827H91.0418L80.6772 25.1246Z" fill="#FFFFFF"/>
  <!-- brand-green tile around the "ee" mark -->
  <path d="M141.89 0H174.939C188.767 0 199.994 11.2058 199.994 25.0067V57.9932C199.994 71.7941 188.767 83 174.939 83H141.89C128.062 83 116.835 71.7941 116.835 57.9932V25.0067C116.835 11.2058 128.062 0 141.89 0Z" fill="#96EA28"/>
  <!-- "ee" symbol inside the tile — stays dark so it reads on green -->
  <path d="M163.76 22.1816C170.981 15.1753 182.273 14.4442 188.359 20.3125L188.661 20.6191C195.018 27.002 194.387 37.7932 187.018 45.9385C183.141 50.2733 177.593 54.1426 171.312 57.1445C174.384 58.8135 178.462 59.4792 183.744 58.6123C189.418 57.6705 195.242 54.4834 199.994 50.0771V57.9931C199.994 59.3341 199.887 60.6505 199.683 61.9346C195.613 64.4569 191.193 66.2293 186.687 67.0879C175.058 69.2877 166.832 66.2856 161.686 60.8183C146.848 65.1532 132.944 62.8886 126.189 55.0801C123.184 56.0172 120.042 56.7473 116.835 57.3486V48.2851C118.636 47.9386 120.429 47.527 122.183 47.0762C120.245 39.1379 122.514 30.6633 126.662 25.5263C132.542 18.2543 143.042 16.585 148.922 22.123C154.004 26.9239 153.466 36.3308 148.721 42.0693C145.642 45.8085 140.832 49.0764 134.952 51.7422C139.697 54.8798 148.254 55.1452 156.875 53.0752C153.064 42.866 155.605 29.7898 163.76 22.1816ZM181.871 26.8525C179.194 24.3165 173.651 24.9183 169.367 29.3886C164.557 34.3251 162.684 43.4019 165.426 50.208C170.909 47.9374 175.855 44.8709 179.731 40.666C184.341 35.5939 185.08 29.8545 181.871 26.8525ZM142.699 28.5927C140.495 26.5876 136.347 27.4601 133.812 30.5918C130.804 34.1953 129.8 39.598 130.604 44.334C135.283 42.3995 139.024 40.0637 141.299 37.3271L141.549 37.0136C144.126 33.7105 144.508 30.3354 142.699 28.5927Z" fill="#1E1E1E"/>
</svg>
