<?xml version="1.0" encoding="UTF-8"?> <svg xmlns="http://www.w3.org/2000/svg" width="142" height="141" viewBox="0 0 142 141" fill="none"><path d="M42.89 0H98.82C122.22 0 141.22 18.9999 141.22 42.3999V98.3298C141.22 121.73 122.22 140.73 98.82 140.73H42.89C19.49 140.73 0.48999 121.73 0.48999 98.3298V42.3999C0.48999 18.9999 19.49 0 42.89 0Z" fill="#96EA28"></path><mask id="mask0_138_137" style="mask-type:luminance" maskUnits="userSpaceOnUse" x="0" y="0" width="142" height="141"><path d="M42.9 0H98.83C122.23 0 141.23 18.9999 141.23 42.3999V98.3298C141.23 121.73 122.23 140.73 98.83 140.73H42.9C19.5 140.73 0.5 121.73 0.5 98.3298V42.3999C0.5 18.9999 19.5 0 42.9 0Z" fill="white"></path></mask><g mask="url(#mask0_138_137)"><path d="M106.93 68.9499C114.73 60.3499 115.98 50.6197 110.55 45.5297C106.02 41.2297 96.64 42.2498 89.39 49.8298C81.25 58.1998 78.0799 73.5898 82.7199 85.1298C91.9999 81.2798 100.37 76.0799 106.93 68.9499ZM41.8799 63.2997C46.6299 57.5297 47.4199 51.5299 44.2599 48.4799C40.5299 45.0799 33.5099 46.5598 29.2199 51.8698C24.1299 57.9798 22.4299 67.1398 23.7899 75.1698C31.7099 71.8898 38.04 67.9297 41.89 63.2897M121.52 34.4499C132.83 45.1999 131.93 63.8598 119.26 77.8898C112.7 85.2398 103.31 91.7998 92.6799 96.8898C97.8799 99.7198 104.78 100.85 113.72 99.3798C127.97 97.0098 142.79 86.2597 151.39 72.7997L163.95 81.8498C153.43 98.5898 136.46 110.36 118.7 113.75C99.02 117.48 85.1 112.39 76.39 103.12C51.28 110.47 27.7499 106.63 16.3199 93.3898C11.2299 94.9798 5.90992 96.2199 0.479919 97.2399L-2.57007 82.4198C1.49993 81.7398 5.57992 80.8397 9.53992 79.8197C6.25992 66.3597 10.0999 51.9897 17.1199 43.2797C27.0699 30.9497 44.8399 28.1199 54.7899 37.5099C63.3899 45.6499 62.4799 61.5998 54.45 71.3298C49.24 77.6698 41.1 83.2099 31.15 87.7299C39.18 93.0499 53.6599 93.4999 68.2499 89.9899C61.7999 72.6799 66.1 50.5098 79.9 37.6098C92.12 25.7298 111.23 24.4899 121.53 34.4399" fill="#1E1E1E"></path></g></svg> 